<svg xmlns="http://www.w3.org/2000/svg" width="538" height="22" viewBox="0 0 538 22" role="img"><title>TypeScript, JavaScript, React, Electron, Node.js, Python</title><g transform="translate(0 0)"><rect width="99" height="22" rx="3" fill="#3178c6"/><rect width="25" height="22" rx="3" fill="#000" opacity=".12"/><text x="12.5" y="15" font-family="Segoe UI,Arial,sans-serif" font-size="10" font-weight="700" text-anchor="middle" fill="#fff">TS</text><text x="62" y="15" font-family="Segoe UI,Arial,sans-serif" font-size="11" text-anchor="middle" fill="#fff">TypeScript</text></g><g transform="translate(104 0)"><rect width="99" height="22" rx="3" fill="#f7df1e"/><rect width="25" height="22" rx="3" fill="#000" opacity=".12"/><text x="12.5" y="15" font-family="Segoe UI,Arial,sans-serif" font-size="10" font-weight="700" text-anchor="middle" fill="#15191e">JS</text><text x="62" y="15" font-family="Segoe UI,Arial,sans-serif" font-size="11" text-anchor="middle" fill="#15191e">JavaScript</text></g><g transform="translate(208 0)"><rect width="70" height="22" rx="3" fill="#087ea4"/><rect width="25" height="22" rx="3" fill="#000" opacity=".12"/><text x="12.5" y="15" font-family="Segoe UI,Arial,sans-serif" font-size="10" font-weight="700" text-anchor="middle" fill="#fff">⚛</text><text x="47.5" y="15" font-family="Segoe UI,Arial,sans-serif" font-size="11" text-anchor="middle" fill="#fff">React</text></g><g transform="translate(283 0)"><rect width="85" height="22" rx="3" fill="#47848f"/><rect width="25" height="22" rx="3" fill="#000" opacity=".12"/><text x="12.5" y="15" font-family="Segoe UI,Arial,sans-serif" font-size="10" font-weight="700" text-anchor="middle" fill="#fff">E</text><text x="55" y="15" font-family="Segoe UI,Arial,sans-serif" font-size="11" text-anchor="middle" fill="#fff">Electron</text></g><g transform="translate(373 0)"><rect width="82" height="22" rx="3" fill="#43853d"/><rect width="25" height="22" rx="3" fill="#000" opacity=".12"/><text x="12.5" y="15" font-family="Segoe UI,Arial,sans-serif" font-size="10" font-weight="700" text-anchor="middle" fill="#fff">N</text><text x="53.5" y="15" font-family="Segoe UI,Arial,sans-serif" font-size="11" text-anchor="middle" fill="#fff">Node.js</text></g><g transform="translate(460 0)"><rect width="78" height="22" rx="3" fill="#3776ab"/><rect width="25" height="22" rx="3" fill="#000" opacity=".12"/><text x="12.5" y="15" font-family="Segoe UI,Arial,sans-serif" font-size="10" font-weight="700" text-anchor="middle" fill="#fff">Py</text><text x="51.5" y="15" font-family="Segoe UI,Arial,sans-serif" font-size="11" text-anchor="middle" fill="#fff">Python</text></g></svg>
